# xmcd
#
# Track frame offsets: 
#        150
#        24352
#        46542
#        81067
#        111655
#        154822
#        174987
#
# Disc length: 3084 seconds
#
# Revision: 0
# Processed by: cddbd v1.5.2PL0 Copyright (c) Steve Scherf et al.
# Submitted via: ExactAudioCopy v1.0b2
#
DISCID=480c0a07
DTITLE=Various Artist - Space Battleship Yamato CD-BOX - Prelude to Final Yamato
DYEAR=2004
DGENRE=Soundtrack
TTITLE0=Water Legend
TTITLE1=Mythology of Aquarius
TTITLE2=Galaxies Collide
TTITLE3=Great Deingil Empire
TTITLE4=Planet of Water Aquarius  - Queen of Aquarius
TTITLE5=Yamato Sortie
TTITLE6=Space Battleship Yamato Memorial
EXTD=YEAR: 1982.5.21
EXTT0=
EXTT1=
EXTT2=
EXTT3=
EXTT4=
EXTT5=
EXTT6=
PLAYORDER=
